<mxfile host="app.diagrams.net" modified="2023-05-27T06:52:02.959Z" agent="Mozilla/5.0 (Windows NT 10.0; Win64; x64; rv:109.0) Gecko/20100101 Firefox/113.0" etag="PRCQV28fqZHazDHfrxts" version="21.3.4" type="device">
  <diagram name="Page-1" id="wVb39pH3NL_5uevE993O">
    <mxGraphModel dx="3240" dy="1290" grid="1" gridSize="10" guides="1" tooltips="1" connect="1" arrows="1" fold="1" page="1" pageScale="1" pageWidth="850" pageHeight="1100" math="0" shadow="0">
      <root>
        <mxCell id="0" />
        <mxCell id="1" parent="0" />
        <mxCell id="mjM2w4tN6G9p1Woitejj-36" value="" style="rounded=0;whiteSpace=wrap;html=1;" vertex="1" parent="1">
          <mxGeometry x="-840" y="400" width="810" height="890" as="geometry" />
        </mxCell>
        <mxCell id="mjM2w4tN6G9p1Woitejj-18" value="" style="rounded=0;whiteSpace=wrap;html=1;" vertex="1" parent="1">
          <mxGeometry x="910" y="40" width="730" height="350" as="geometry" />
        </mxCell>
        <mxCell id="mjM2w4tN6G9p1Woitejj-12" style="edgeStyle=orthogonalEdgeStyle;rounded=0;orthogonalLoop=1;jettySize=auto;html=1;" edge="1" parent="1" source="mjM2w4tN6G9p1Woitejj-1">
          <mxGeometry relative="1" as="geometry">
            <mxPoint x="375" y="230" as="targetPoint" />
          </mxGeometry>
        </mxCell>
        <mxCell id="mjM2w4tN6G9p1Woitejj-1" value="" style="rounded=0;whiteSpace=wrap;html=1;" vertex="1" parent="1">
          <mxGeometry x="40" y="40" width="670" height="110" as="geometry" />
        </mxCell>
        <mxCell id="mjM2w4tN6G9p1Woitejj-3" value="MLB" style="rounded=0;whiteSpace=wrap;html=1;" vertex="1" parent="1">
          <mxGeometry x="60" y="60" width="120" height="60" as="geometry" />
        </mxCell>
        <mxCell id="mjM2w4tN6G9p1Woitejj-4" value="NBA" style="whiteSpace=wrap;html=1;" vertex="1" parent="1">
          <mxGeometry x="200" y="60" width="120" height="60" as="geometry" />
        </mxCell>
        <mxCell id="mjM2w4tN6G9p1Woitejj-5" value="NHL" style="whiteSpace=wrap;html=1;" vertex="1" parent="1">
          <mxGeometry x="340" y="60" width="120" height="60" as="geometry" />
        </mxCell>
        <mxCell id="mjM2w4tN6G9p1Woitejj-7" value="IGetData" style="rounded=0;whiteSpace=wrap;html=1;" vertex="1" parent="1">
          <mxGeometry x="1480" y="710" width="120" height="30" as="geometry" />
        </mxCell>
        <mxCell id="mjM2w4tN6G9p1Woitejj-9" value="Web Scraper" style="whiteSpace=wrap;html=1;" vertex="1" parent="1">
          <mxGeometry x="1480" y="640" width="120" height="50" as="geometry" />
        </mxCell>
        <mxCell id="mjM2w4tN6G9p1Woitejj-11" value="&lt;div&gt;Features:&lt;br&gt;&lt;/div&gt;&lt;div&gt;Save Data for Offline&lt;/div&gt;" style="rounded=0;whiteSpace=wrap;html=1;" vertex="1" parent="1">
          <mxGeometry x="1485" y="420" width="120" height="60" as="geometry" />
        </mxCell>
        <mxCell id="mjM2w4tN6G9p1Woitejj-13" value="" style="rounded=0;whiteSpace=wrap;html=1;" vertex="1" parent="1">
          <mxGeometry x="40" y="230" width="680" height="360" as="geometry" />
        </mxCell>
        <mxCell id="mjM2w4tN6G9p1Woitejj-14" value="&lt;div&gt;FEATURE:&lt;/div&gt;&lt;div&gt;Search Player&lt;/div&gt;&lt;div&gt;- Picture&lt;/div&gt;&lt;div&gt;-Their Stats&lt;br&gt;&lt;/div&gt;" style="rounded=0;whiteSpace=wrap;html=1;" vertex="1" parent="1">
          <mxGeometry x="1480" y="510" width="110" height="110" as="geometry" />
        </mxCell>
        <mxCell id="mjM2w4tN6G9p1Woitejj-15" value="PICTURE" style="ellipse;whiteSpace=wrap;html=1;aspect=fixed;" vertex="1" parent="1">
          <mxGeometry x="-820" y="620" width="280" height="280" as="geometry" />
        </mxCell>
        <mxCell id="mjM2w4tN6G9p1Woitejj-16" value="Search Player" style="whiteSpace=wrap;html=1;" vertex="1" parent="1">
          <mxGeometry x="-830" y="470" width="130" height="40" as="geometry" />
        </mxCell>
        <mxCell id="mjM2w4tN6G9p1Woitejj-17" value="PLAYERS" style="rounded=0;whiteSpace=wrap;html=1;" vertex="1" parent="1">
          <mxGeometry x="925" y="100" width="120" height="60" as="geometry" />
        </mxCell>
        <mxCell id="mjM2w4tN6G9p1Woitejj-19" value="BRAINSTORM:" style="text;html=1;strokeColor=none;fillColor=none;align=center;verticalAlign=middle;whiteSpace=wrap;rounded=0;" vertex="1" parent="1">
          <mxGeometry x="1155" y="40" width="190" height="70" as="geometry" />
        </mxCell>
        <mxCell id="mjM2w4tN6G9p1Woitejj-20" value="&lt;div&gt;TEAMS&lt;/div&gt;" style="rounded=0;whiteSpace=wrap;html=1;" vertex="1" parent="1">
          <mxGeometry x="1065" y="100" width="120" height="60" as="geometry" />
        </mxCell>
        <mxCell id="mjM2w4tN6G9p1Woitejj-21" value="WEATHER" style="whiteSpace=wrap;html=1;" vertex="1" parent="1">
          <mxGeometry x="1205" y="100" width="120" height="60" as="geometry" />
        </mxCell>
        <mxCell id="mjM2w4tN6G9p1Woitejj-22" value="TEAM&#39;S SCHEDULE" style="rounded=0;whiteSpace=wrap;html=1;" vertex="1" parent="1">
          <mxGeometry x="1065" y="170" width="120" height="60" as="geometry" />
        </mxCell>
        <mxCell id="mjM2w4tN6G9p1Woitejj-23" value="STATISTICS" style="whiteSpace=wrap;html=1;" vertex="1" parent="1">
          <mxGeometry x="1345" y="100" width="120" height="60" as="geometry" />
        </mxCell>
        <mxCell id="mjM2w4tN6G9p1Woitejj-24" value="ODDS" style="whiteSpace=wrap;html=1;" vertex="1" parent="1">
          <mxGeometry x="1345" y="170" width="120" height="60" as="geometry" />
        </mxCell>
        <mxCell id="mjM2w4tN6G9p1Woitejj-27" value="NEWS" style="whiteSpace=wrap;html=1;" vertex="1" parent="1">
          <mxGeometry x="1485" y="100" width="120" height="60" as="geometry" />
        </mxCell>
        <mxCell id="mjM2w4tN6G9p1Woitejj-28" value="" style="rounded=1;whiteSpace=wrap;html=1;" vertex="1" parent="1">
          <mxGeometry x="50" y="250" width="660" height="70" as="geometry" />
        </mxCell>
        <mxCell id="mjM2w4tN6G9p1Woitejj-29" value="Players" style="whiteSpace=wrap;html=1;" vertex="1" parent="1">
          <mxGeometry x="70" y="270" width="90" height="30" as="geometry" />
        </mxCell>
        <mxCell id="mjM2w4tN6G9p1Woitejj-30" value="Teams" style="whiteSpace=wrap;html=1;" vertex="1" parent="1">
          <mxGeometry x="170" y="270" width="100" height="30" as="geometry" />
        </mxCell>
        <mxCell id="mjM2w4tN6G9p1Woitejj-31" value="Games" style="whiteSpace=wrap;html=1;" vertex="1" parent="1">
          <mxGeometry x="280" y="270" width="120" height="30" as="geometry" />
        </mxCell>
        <mxCell id="mjM2w4tN6G9p1Woitejj-32" value="Statistics" style="whiteSpace=wrap;html=1;" vertex="1" parent="1">
          <mxGeometry x="410" y="270" width="120" height="30" as="geometry" />
        </mxCell>
        <mxCell id="mjM2w4tN6G9p1Woitejj-33" value="News" style="whiteSpace=wrap;html=1;" vertex="1" parent="1">
          <mxGeometry x="540" y="270" width="120" height="30" as="geometry" />
        </mxCell>
        <mxCell id="mjM2w4tN6G9p1Woitejj-34" value="SLIDESHOW" style="rounded=1;whiteSpace=wrap;html=1;" vertex="1" parent="1">
          <mxGeometry x="70" y="350" width="620" height="220" as="geometry" />
        </mxCell>
        <mxCell id="mjM2w4tN6G9p1Woitejj-35" style="edgeStyle=orthogonalEdgeStyle;rounded=0;orthogonalLoop=1;jettySize=auto;html=1;exitX=0.5;exitY=1;exitDx=0;exitDy=0;" edge="1" parent="1" source="mjM2w4tN6G9p1Woitejj-16" target="mjM2w4tN6G9p1Woitejj-16">
          <mxGeometry relative="1" as="geometry" />
        </mxCell>
        <mxCell id="mjM2w4tN6G9p1Woitejj-37" value="PLAYER NAME" style="rounded=0;whiteSpace=wrap;html=1;" vertex="1" parent="1">
          <mxGeometry x="-790" y="540" width="220" height="60" as="geometry" />
        </mxCell>
        <mxCell id="mjM2w4tN6G9p1Woitejj-38" value="" style="rounded=0;whiteSpace=wrap;html=1;" vertex="1" parent="1">
          <mxGeometry x="-840" y="20" width="800" height="340" as="geometry" />
        </mxCell>
        <mxCell id="mjM2w4tN6G9p1Woitejj-39" value="TEAMS SCREEN" style="rounded=1;whiteSpace=wrap;html=1;" vertex="1" parent="1">
          <mxGeometry x="-820" y="30" width="120" height="40" as="geometry" />
        </mxCell>
        <mxCell id="mjM2w4tN6G9p1Woitejj-54" value="Assets" style="childLayout=tableLayout;recursiveResize=0;strokeColor=#98bf21;fillColor=#A7C942;shadow=1;" vertex="1" parent="1">
          <mxGeometry x="-820" y="80" width="580" height="240" as="geometry" />
        </mxCell>
        <mxCell id="mjM2w4tN6G9p1Woitejj-55" style="shape=tableRow;horizontal=0;startSize=0;swimlaneHead=0;swimlaneBody=0;top=0;left=0;bottom=0;right=0;dropTarget=0;collapsible=0;recursiveResize=0;expand=0;fontStyle=0;strokeColor=inherit;fillColor=#ffffff;" vertex="1" parent="mjM2w4tN6G9p1Woitejj-54">
          <mxGeometry width="580" height="50" as="geometry" />
        </mxCell>
        <mxCell id="mjM2w4tN6G9p1Woitejj-56" value="Title 1" style="connectable=0;recursiveResize=0;strokeColor=inherit;fillColor=#A7C942;align=center;fontStyle=1;fontColor=#FFFFFF;html=1;" vertex="1" parent="mjM2w4tN6G9p1Woitejj-55">
          <mxGeometry width="193" height="50" as="geometry">
            <mxRectangle width="193" height="50" as="alternateBounds" />
          </mxGeometry>
        </mxCell>
        <mxCell id="mjM2w4tN6G9p1Woitejj-57" value="TEAM" style="connectable=0;recursiveResize=0;strokeColor=inherit;fillColor=#A7C942;align=center;fontStyle=1;fontColor=#FFFFFF;html=1;" vertex="1" parent="mjM2w4tN6G9p1Woitejj-55">
          <mxGeometry x="193" width="194" height="50" as="geometry">
            <mxRectangle width="194" height="50" as="alternateBounds" />
          </mxGeometry>
        </mxCell>
        <mxCell id="mjM2w4tN6G9p1Woitejj-58" value="RECORD" style="connectable=0;recursiveResize=0;strokeColor=inherit;fillColor=#A7C942;align=center;fontStyle=1;fontColor=#FFFFFF;html=1;" vertex="1" parent="mjM2w4tN6G9p1Woitejj-55">
          <mxGeometry x="387" width="193" height="50" as="geometry">
            <mxRectangle width="193" height="50" as="alternateBounds" />
          </mxGeometry>
        </mxCell>
        <mxCell id="mjM2w4tN6G9p1Woitejj-59" value="" style="shape=tableRow;horizontal=0;startSize=0;swimlaneHead=0;swimlaneBody=0;top=0;left=0;bottom=0;right=0;dropTarget=0;collapsible=0;recursiveResize=0;expand=0;fontStyle=0;strokeColor=inherit;fillColor=#ffffff;" vertex="1" parent="mjM2w4tN6G9p1Woitejj-54">
          <mxGeometry y="50" width="580" height="48" as="geometry" />
        </mxCell>
        <mxCell id="mjM2w4tN6G9p1Woitejj-60" value="Value 1" style="connectable=0;recursiveResize=0;strokeColor=inherit;fillColor=inherit;align=center;whiteSpace=wrap;html=1;" vertex="1" parent="mjM2w4tN6G9p1Woitejj-59">
          <mxGeometry width="193" height="48" as="geometry">
            <mxRectangle width="193" height="48" as="alternateBounds" />
          </mxGeometry>
        </mxCell>
        <mxCell id="mjM2w4tN6G9p1Woitejj-61" value="MIAMI HEAT" style="connectable=0;recursiveResize=0;align=center;whiteSpace=wrap;html=1;fontColor=#ffffff;fillColor=#1ba1e2;strokeColor=#006EAF;" vertex="1" parent="mjM2w4tN6G9p1Woitejj-59">
          <mxGeometry x="193" width="194" height="48" as="geometry">
            <mxRectangle width="194" height="48" as="alternateBounds" />
          </mxGeometry>
        </mxCell>
        <mxCell id="mjM2w4tN6G9p1Woitejj-62" value="Value 3" style="connectable=0;recursiveResize=0;strokeColor=#001DBC;fillColor=#0050ef;align=center;whiteSpace=wrap;html=1;fontColor=#ffffff;" vertex="1" parent="mjM2w4tN6G9p1Woitejj-59">
          <mxGeometry x="387" width="193" height="48" as="geometry">
            <mxRectangle width="193" height="48" as="alternateBounds" />
          </mxGeometry>
        </mxCell>
        <mxCell id="mjM2w4tN6G9p1Woitejj-63" value="" style="shape=tableRow;horizontal=0;startSize=0;swimlaneHead=0;swimlaneBody=0;top=0;left=0;bottom=0;right=0;dropTarget=0;collapsible=0;recursiveResize=0;expand=0;fontStyle=1;strokeColor=inherit;fillColor=#EAF2D3;" vertex="1" parent="mjM2w4tN6G9p1Woitejj-54">
          <mxGeometry y="98" width="580" height="46" as="geometry" />
        </mxCell>
        <mxCell id="mjM2w4tN6G9p1Woitejj-64" value="Value 4" style="connectable=0;recursiveResize=0;strokeColor=inherit;fillColor=inherit;whiteSpace=wrap;html=1;" vertex="1" parent="mjM2w4tN6G9p1Woitejj-63">
          <mxGeometry width="193" height="46" as="geometry">
            <mxRectangle width="193" height="46" as="alternateBounds" />
          </mxGeometry>
        </mxCell>
        <mxCell id="mjM2w4tN6G9p1Woitejj-65" value="BOSTON CELTICS" style="connectable=0;recursiveResize=0;strokeColor=#006EAF;fillColor=#1ba1e2;whiteSpace=wrap;html=1;fontColor=#ffffff;" vertex="1" parent="mjM2w4tN6G9p1Woitejj-63">
          <mxGeometry x="193" width="194" height="46" as="geometry">
            <mxRectangle width="194" height="46" as="alternateBounds" />
          </mxGeometry>
        </mxCell>
        <mxCell id="mjM2w4tN6G9p1Woitejj-66" value="Value 6" style="connectable=0;recursiveResize=0;strokeColor=#001DBC;fillColor=#0050ef;whiteSpace=wrap;html=1;fontColor=#ffffff;" vertex="1" parent="mjM2w4tN6G9p1Woitejj-63">
          <mxGeometry x="387" width="193" height="46" as="geometry">
            <mxRectangle width="193" height="46" as="alternateBounds" />
          </mxGeometry>
        </mxCell>
        <mxCell id="mjM2w4tN6G9p1Woitejj-67" value="" style="shape=tableRow;horizontal=0;startSize=0;swimlaneHead=0;swimlaneBody=0;top=0;left=0;bottom=0;right=0;dropTarget=0;collapsible=0;recursiveResize=0;expand=0;fontStyle=0;strokeColor=inherit;fillColor=#ffffff;" vertex="1" parent="mjM2w4tN6G9p1Woitejj-54">
          <mxGeometry y="144" width="580" height="50" as="geometry" />
        </mxCell>
        <mxCell id="mjM2w4tN6G9p1Woitejj-68" value="Value 7" style="connectable=0;recursiveResize=0;strokeColor=inherit;fillColor=inherit;fontStyle=0;align=center;whiteSpace=wrap;html=1;" vertex="1" parent="mjM2w4tN6G9p1Woitejj-67">
          <mxGeometry width="193" height="50" as="geometry">
            <mxRectangle width="193" height="50" as="alternateBounds" />
          </mxGeometry>
        </mxCell>
        <mxCell id="mjM2w4tN6G9p1Woitejj-69" value="&lt;div&gt;DENVER NUGGETS&lt;/div&gt;" style="connectable=0;recursiveResize=0;strokeColor=#006EAF;fillColor=#1ba1e2;fontStyle=0;align=center;whiteSpace=wrap;html=1;fontColor=#ffffff;" vertex="1" parent="mjM2w4tN6G9p1Woitejj-67">
          <mxGeometry x="193" width="194" height="50" as="geometry">
            <mxRectangle width="194" height="50" as="alternateBounds" />
          </mxGeometry>
        </mxCell>
        <mxCell id="mjM2w4tN6G9p1Woitejj-70" value="Value 9" style="connectable=0;recursiveResize=0;strokeColor=#001DBC;fillColor=#0050ef;fontStyle=0;align=center;whiteSpace=wrap;html=1;fontColor=#ffffff;" vertex="1" parent="mjM2w4tN6G9p1Woitejj-67">
          <mxGeometry x="387" width="193" height="50" as="geometry">
            <mxRectangle width="193" height="50" as="alternateBounds" />
          </mxGeometry>
        </mxCell>
        <mxCell id="mjM2w4tN6G9p1Woitejj-71" value="" style="shape=tableRow;horizontal=0;startSize=0;swimlaneHead=0;swimlaneBody=0;top=0;left=0;bottom=0;right=0;dropTarget=0;collapsible=0;recursiveResize=0;expand=0;fontStyle=1;strokeColor=inherit;fillColor=#EAF2D3;" vertex="1" parent="mjM2w4tN6G9p1Woitejj-54">
          <mxGeometry y="194" width="580" height="46" as="geometry" />
        </mxCell>
        <mxCell id="mjM2w4tN6G9p1Woitejj-72" value="Value 10" style="connectable=0;recursiveResize=0;strokeColor=inherit;fillColor=inherit;whiteSpace=wrap;html=1;" vertex="1" parent="mjM2w4tN6G9p1Woitejj-71">
          <mxGeometry width="193" height="46" as="geometry">
            <mxRectangle width="193" height="46" as="alternateBounds" />
          </mxGeometry>
        </mxCell>
        <mxCell id="mjM2w4tN6G9p1Woitejj-73" value="..." style="connectable=0;recursiveResize=0;strokeColor=#006EAF;fillColor=#1ba1e2;whiteSpace=wrap;html=1;fontColor=#ffffff;" vertex="1" parent="mjM2w4tN6G9p1Woitejj-71">
          <mxGeometry x="193" width="194" height="46" as="geometry">
            <mxRectangle width="194" height="46" as="alternateBounds" />
          </mxGeometry>
        </mxCell>
        <mxCell id="mjM2w4tN6G9p1Woitejj-74" value="Value 12" style="connectable=0;recursiveResize=0;strokeColor=#001DBC;fillColor=#0050ef;whiteSpace=wrap;html=1;fontColor=#ffffff;" vertex="1" parent="mjM2w4tN6G9p1Woitejj-71">
          <mxGeometry x="387" width="193" height="46" as="geometry">
            <mxRectangle width="193" height="46" as="alternateBounds" />
          </mxGeometry>
        </mxCell>
        <mxCell id="mjM2w4tN6G9p1Woitejj-75" value="" style="shape=singleArrow;direction=south;whiteSpace=wrap;html=1;" vertex="1" parent="1">
          <mxGeometry x="-800" y="140" width="60" height="30" as="geometry" />
        </mxCell>
        <mxCell id="mjM2w4tN6G9p1Woitejj-97" value="" style="rounded=0;whiteSpace=wrap;html=1;" vertex="1" parent="1">
          <mxGeometry x="910" y="420" width="520" height="290" as="geometry" />
        </mxCell>
        <mxCell id="mjM2w4tN6G9p1Woitejj-98" value="STATISTICS (DATA) TO COLLECT" style="rounded=1;whiteSpace=wrap;html=1;" vertex="1" parent="1">
          <mxGeometry x="925" y="430" width="120" height="60" as="geometry" />
        </mxCell>
        <mxCell id="mjM2w4tN6G9p1Woitejj-100" value="PLAYER DATA" style="rounded=0;whiteSpace=wrap;html=1;" vertex="1" parent="1">
          <mxGeometry x="925" y="500" width="135" height="60" as="geometry" />
        </mxCell>
        <mxCell id="mjM2w4tN6G9p1Woitejj-101" value="TEAM DATA" style="rounded=0;whiteSpace=wrap;html=1;" vertex="1" parent="1">
          <mxGeometry x="1080" y="500" width="120" height="60" as="geometry" />
        </mxCell>
        <mxCell id="mjM2w4tN6G9p1Woitejj-102" value="&lt;div&gt;GENERAL STATISTICS&lt;/div&gt;&lt;div&gt;(aka league wide statistics)&lt;br&gt;&lt;/div&gt;" style="rounded=0;whiteSpace=wrap;html=1;" vertex="1" parent="1">
          <mxGeometry x="1220" y="500" width="140" height="60" as="geometry" />
        </mxCell>
        <mxCell id="mjM2w4tN6G9p1Woitejj-103" value="" style="rounded=0;whiteSpace=wrap;html=1;" vertex="1" parent="1">
          <mxGeometry x="-240" y="80" width="140" height="240" as="geometry" />
        </mxCell>
        <mxCell id="mjM2w4tN6G9p1Woitejj-104" value="Show Team Stats" style="rounded=1;whiteSpace=wrap;html=1;" vertex="1" parent="1">
          <mxGeometry x="-230" y="135" width="120" height="35" as="geometry" />
        </mxCell>
        <mxCell id="mjM2w4tN6G9p1Woitejj-105" value="PLAYERS SCREEN" style="rounded=1;whiteSpace=wrap;html=1;" vertex="1" parent="1">
          <mxGeometry x="-830" y="410" width="120" height="40" as="geometry" />
        </mxCell>
        <mxCell id="mjM2w4tN6G9p1Woitejj-109" value="CURRENT STATS" style="rounded=1;whiteSpace=wrap;html=1;" vertex="1" parent="1">
          <mxGeometry x="-460" y="605" width="385" height="310" as="geometry" />
        </mxCell>
        <mxCell id="mjM2w4tN6G9p1Woitejj-111" value="&lt;div&gt;DYNAMIC&lt;/div&gt;&lt;div&gt;- OUR ANALYSIS&lt;/div&gt;&lt;div&gt;- HISTORICAL DATA&lt;/div&gt;&lt;div&gt;&lt;br&gt;&lt;/div&gt;" style="rounded=1;whiteSpace=wrap;html=1;" vertex="1" parent="1">
          <mxGeometry x="-820" y="940" width="760" height="330" as="geometry" />
        </mxCell>
        <mxCell id="mjM2w4tN6G9p1Woitejj-106" value="" style="rounded=0;whiteSpace=wrap;html=1;" vertex="1" parent="1">
          <mxGeometry x="-700" y="960" width="250" height="50" as="geometry" />
        </mxCell>
        <mxCell id="mjM2w4tN6G9p1Woitejj-107" value="Start-Date" style="rounded=1;whiteSpace=wrap;html=1;" vertex="1" parent="1">
          <mxGeometry x="-690" y="970" width="110" height="30" as="geometry" />
        </mxCell>
        <mxCell id="mjM2w4tN6G9p1Woitejj-108" value="End-Date" style="rounded=1;whiteSpace=wrap;html=1;" vertex="1" parent="1">
          <mxGeometry x="-570" y="970" width="110" height="30" as="geometry" />
        </mxCell>
        <mxCell id="mjM2w4tN6G9p1Woitejj-112" value="" style="rounded=0;whiteSpace=wrap;html=1;" vertex="1" parent="1">
          <mxGeometry x="-840" y="1320" width="810" height="250" as="geometry" />
        </mxCell>
        <mxCell id="mjM2w4tN6G9p1Woitejj-113" value="Watch Game feature" style="rounded=0;whiteSpace=wrap;html=1;" vertex="1" parent="1">
          <mxGeometry x="1480" y="760" width="140" height="60" as="geometry" />
        </mxCell>
        <mxCell id="mjM2w4tN6G9p1Woitejj-114" value="NEWS SCREEN" style="rounded=1;whiteSpace=wrap;html=1;" vertex="1" parent="1">
          <mxGeometry x="-820" y="1340" width="120" height="60" as="geometry" />
        </mxCell>
        <mxCell id="mjM2w4tN6G9p1Woitejj-115" value="" style="rounded=0;whiteSpace=wrap;html=1;" vertex="1" parent="1">
          <mxGeometry x="-840" y="1600" width="810" height="290" as="geometry" />
        </mxCell>
        <mxCell id="mjM2w4tN6G9p1Woitejj-116" value="GAMES SCREEN" style="rounded=1;whiteSpace=wrap;html=1;" vertex="1" parent="1">
          <mxGeometry x="-820" y="1610" width="120" height="60" as="geometry" />
        </mxCell>
      </root>
    </mxGraphModel>
  </diagram>
</mxfile>
